<svg xmlns="http://www.w3.org/2000/svg" viewBox="-443 245 72 72" enable-background="new -443 245 72 72"><path fill="#3392C4" d="M-375.5 272.6c0 3.8-3.1 6.9-6.9 6.9h-50.1c-3.8 0-6.9-3.1-6.9-6.9v-17.1c0-3.8 3.1-6.9 6.9-6.9h50.1c3.8 0 6.9 3.1 6.9 6.9v17.1zm-4-17.2c0-1.6-1.3-2.9-2.9-2.9h-50.1c-1.6 0-2.9 1.3-2.9 2.9v17.1c0 1.6 1.3 2.9 2.9 2.9h50.1c1.6 0 2.9-1.3 2.9-2.9v-17.1zM-431.5 264.5c-.6 0-1-.4-1-1v-1.8c0-2.6 1.2-5.2 4-5.2h6.7c.6 0 1 .4 1 1s-.4 1-1 1h-6.7c-1.5 0-2 1.6-2 3.2v1.8c0 .6-.4 1-1 1zM-432.3 267.9c-.3 0-.5-.1-.7-.3-.2-.2-.3-.5-.3-.7 0-.3.1-.5.3-.7.4-.4 1-.4 1.4 0 .2.2.3.5.3.7 0 .3-.1.5-.3.7-.2.2-.4.3-.7.3zM-396.5 306.6c0 3.8-3.1 6.9-6.9 6.9h-29.1c-3.8 0-6.9-3.1-6.9-6.9v-17.1c0-3.8 3.1-6.9 6.9-6.9h29.1c3.8 0 6.9 3.1 6.9 6.9v17.1zm-4-17.2c0-1.6-1.3-2.9-2.9-2.9h-29.1c-1.6 0-2.9 1.3-2.9 2.9v17.1c0 1.6 1.3 2.9 2.9 2.9h29.1c1.6 0 2.9-1.3 2.9-2.9v-17.1zM-374.5 306.6c0 3.8-3.1 6.9-6.9 6.9h-5.1c-3.8 0-6.9-3.1-6.9-6.9v-17.1c0-3.8 3.1-6.9 6.9-6.9h5.1c3.8 0 6.9 3.1 6.9 6.9v17.1zm-4-17.2c0-1.6-1.3-2.9-2.9-2.9h-5.1c-1.6 0-2.9 1.3-2.9 2.9v17.1c0 1.6 1.3 2.9 2.9 2.9h5.1c1.6 0 2.9-1.3 2.9-2.9v-17.1z"/></svg>