<svg xmlns="http://www.w3.org/2000/svg" viewBox="-443 245 72 72" enable-background="new -443 245 72 72"><path fill="#3392C4" d="M-428.8 314.4c-.8 0-1.5-.4-1.9-1-.8-1.1-.3-2.5-.1-3.1l6.5-24.1c0-.1 0-.1.1-.2v-.1h-3.9c-1.5 0-2.7-.6-3.4-1.7-.7-1.1-.6-2.5.1-3.8l16.2-29.2c1.1-2.1 3.8-3.6 6.1-3.6h23.5c1.6 0 2.8.7 3.3 1.8.6 1.2.3 2.5-.7 3.8l-16.7 21.3h7.1c2.4 0 3.1 1.3 3.3 1.9.2.6.5 2-1.3 3.5l-35.9 33.4-.1.1c-.7.7-1.5 1-2.2 1zm8.3-27l-5.4 20 31.1-28.9h-5.9c-1.6 0-2.8-.7-3.3-1.8-.6-1.2-.3-2.5.7-3.8l16.7-21.3H-409c-.9 0-2.2.8-2.6 1.6l-16 28.8h3.5c1.4 0 2.7.6 3.4 1.7.5 1 .7 2.3.2 3.7zM-416.5 271.5c-.2 0-.3 0-.5-.1-.5-.3-.7-.9-.4-1.4l.9-1.6c.3-.5.9-.7 1.4-.4.5.3.7.9.4 1.4l-.9 1.6c-.2.3-.6.5-.9.5zm2.8-5.1c-.2 0-.3 0-.5-.1-.5-.3-.7-.9-.4-1.4l4.2-7.6c.9-1.6 2.9-2.8 4.7-2.8h2.6c.6 0 1 .4 1 1s-.4 1-1 1h-2.6c-1.1 0-2.4.8-3 1.8l-4.2 7.6c-.1.3-.4.5-.8.5z"/></svg>