<svg xmlns="http://www.w3.org/2000/svg" viewBox="-443 245 72 72" enable-background="new -443 245 72 72"><g fill="#fff"><path d="M-406 248.5h-1.8c-13.7 0-24.7 10.7-24.7 24v33.7c0 3.7 3.3 7.3 6.8 7.3h.3c3.8 0 5.9-3.8 5.9-7.3v-3c0-1.2 1.8-1.7 3.1-1.7h.3c.8 0 2.6.1 2.6 1.7v3c0 3.4 2.6 7.3 6.4 7.3h.3c3.7 0 6.2-3.8 6.2-7.3v-3c0-1.4 1.8-1.7 2.8-1.7h.3c1.4 0 1.9.4 1.9 1.7v3c0 3.6 3.5 7.3 7.1 7.3h.3c3.7 0 6.6-3.9 6.6-7.3v-33.7c.1-13.3-10.9-24-24.4-24zm20.5 57.7c0 1.5-1.3 3.3-2.6 3.3h-.3c-1.4 0-3.1-1.9-3.1-3.3v-3c0-3.6-2.3-5.7-5.9-5.7h-.3c-4 0-6.8 2.4-6.8 5.7v3c0 1.5-1 3.3-2.2 3.3h-.3c-1.2 0-2.4-1.7-2.4-3.3v-3c0-3.4-2.7-5.7-6.6-5.7h-.3c-3.5 0-7.1 2-7.1 5.7v3c0 1.3-.7 3.3-1.9 3.3h-.3c-1.3 0-2.8-1.8-2.8-3.3v-33.7c0-11.1 9.3-20 20.7-20h1.8c11.5 0 20.5 8.7 20.5 20v33.7zM-407.2 256.5h.6c.5 0 1-.5 1-1 0-.6-.4-1-1-1.1h-.7c-.6 0-1 .5-1 1 .1.6.5 1.1 1.1 1.1zM-402.2 255.1c-.5-.1-1.1.2-1.2.7-.1.5.2 1.1.7 1.2 7.3 1.9 12.2 8.1 12.2 15.4v12.1c0 .6.4 1 1 1s1-.4 1-1v-12.1c0-8.3-5.5-15.2-13.7-17.3zM-419.2 268.6c-3.2 0-5.8 2.6-5.8 5.8s2.6 5.8 5.8 5.8c3.2 0 5.8-2.6 5.8-5.8s-2.6-5.8-5.8-5.8zm0 9.7c-2.1 0-3.8-1.7-3.8-3.8s1.7-3.8 3.8-3.8 3.8 1.7 3.8 3.8-1.7 3.8-3.8 3.8zM-404.5 268.6c-3.2 0-5.8 2.6-5.8 5.8s2.6 5.8 5.8 5.8c3.2 0 5.8-2.6 5.8-5.8s-2.6-5.8-5.8-5.8zm0 9.7c-2.1 0-3.8-1.7-3.8-3.8s1.7-3.8 3.8-3.8 3.8 1.7 3.8 3.8-1.7 3.8-3.8 3.8z"/></g></svg>