<svg xmlns="http://www.w3.org/2000/svg" viewBox="-467 269 24 24" enable-background="new -467 269 24 24"><g><path fill="#61ebc8" d="M-455 290c-5 0-9-4-9-9s4-9 9-9 9 4 9 9-4 9-9 9zm0-16c-3.9 0-7 3.1-7 7s3.1 7 7 7 7-3.1 7-7-3.1-7-7-7zM-453.4 281.6c.2 0 .3.1.4.3.1.2.2.4.2.6 0 .2-.1.5-.2.6-.1.2-.3.3-.4.3-.2 0-.3-.1-.5-.3-.1-.2-.2-.4-.2-.6 0-.2.1-.5.2-.6.1-.2.3-.3.5-.3m2.2-2.3c.5.5.7 1.2.7 1.9 0 .5-.1.9-.2 1.3s-.3.7-.4.9c-.2.2-.4.5-.6.6-.2.2-.5.3-.7.4-.2.1-.4.2-.7.2-.3 0-.5.1-.6.1h-2.6c-.1 0-.3 0-.6-.1-.3 0-.5-.1-.7-.2-.2-.1-.4-.2-.7-.4-.2-.2-.5-.4-.6-.6-.2-.2-.3-.6-.4-.9-.1-.4-.2-.8-.2-1.3 0-.7.2-1.4.7-1.9-.1 0-.1-.3 0-.8 0-.5.1-1 .3-1.4.6.1 1.3.4 2.2 1 .3-.1.7-.1 1.2-.1s1 0 1.2.1c.4-.3.8-.5 1.2-.7.4-.2.6-.3.8-.3l.3-.1c.2.4.3.9.3 1.4.1.7.1.9.1.9m-3.8 5.1c1.1 0 1.9-.1 2.5-.4.6-.3.8-.8.8-1.6 0-.5-.2-.9-.5-1.2-.2-.2-.4-.3-.6-.3h-1.1c-.5 0-.8.1-1 .1H-456.6c-.2 0-.4 0-.6.1-.2.1-.4.1-.5.3-.3.3-.5.7-.5 1.2 0 .8.3 1.3.8 1.6.5 0 1.3.2 2.4.2m-1.5-2.8c.2 0 .3.1.4.3.1.2.2.4.2.6 0 .2-.1.5-.2.6-.1.2-.3.3-.4.3-.2 0-.3-.1-.5-.3-.1-.2-.2-.4-.2-.6 0-.2.1-.5.2-.6.1-.2.3-.3.5-.3"/></g></svg>