<svg xmlns="http://www.w3.org/2000/svg" viewBox="-467 269 24 24" enable-background="new -467 269 24 24"><g><path fill="#61ebc8" d="M-451.7 279.3c.4-.2.6-.5.7-.9-.3.2-.7.3-1 .4-.3-.3-.7-.5-1.2-.5s-.9.2-1.2.5c-.3.3-.5.7-.5 1.2 0 .1 0 .3.1.4-1.4 0-2.5-.6-3.4-1.7-.2.3-.2.5-.2.8 0 .6.2 1 .7 1.4-.3 0-.5-.1-.7-.2 0 .4.1.8.4 1.1.2.3.6.5.9.6-.1 0-.3.1-.4.1h-.3c.1.3.3.6.6.8.3.2.6.3 1 .3-.6.5-1.3.7-2 .7h-.4c.8.5 1.6.7 2.5.7 1 0 1.8-.2 2.5-.7.7-.5 1.3-1.1 1.6-1.8.3-.7.5-1.4.5-2.2v-.2c.3-.3.6-.5.8-.9-.4-.1-.7 0-1 .1zM-455 290c-2.5 0-4.6-.9-6.4-2.6-1.7-1.8-2.6-3.9-2.6-6.4 0-2.5.9-4.6 2.6-6.4 1.7-1.7 3.9-2.6 6.4-2.6 2.5 0 4.6.9 6.4 2.6 1.8 1.7 2.6 3.9 2.6 6.4 0 2.5-.9 4.6-2.6 6.4-1.8 1.7-3.9 2.6-6.4 2.6zm0-16c-2 0-3.6.7-5 2-1.4 1.4-2 3-2 5 0 1.9.7 3.6 2 4.9 1.4 1.4 3 2.1 5 2.1 1.9 0 3.6-.7 4.9-2.1 1.4-1.4 2.1-3 2.1-4.9 0-2-.7-3.6-2.1-5-1.3-1.3-3-2-4.9-2z"/></g></svg>