<svg xmlns="http://www.w3.org/2000/svg" viewBox="-443 245 72 72" enable-background="new -443 245 72 72"><g fill="#3392C4"><path d="M-375.4 301.7s.1.1 0 0l-19.8-28.6v-22.7c0-1.1-.5-1.9-1.6-1.9h-19c-1.1 0-1.4.8-1.4 1.9v22.1l-20.9 29.2-.2.3c-1.7 2.9-2.1 5.6-.8 7.9 1.3 2.3 3.9 3.5 7.3 3.5h49.5c3.4 0 6.1-1.3 7.4-3.6 1.3-2.1 1.2-5.1-.5-8.1zm-38.5-27.4c.2-.3.7-.7.7-1.2v-20.6h14v21.3c0 .4-.2.8 0 1.2l9.2 13.3c-3.1 1.2-6.8 2-14.5-2.6-5.6-3.3-12.5-2-17.2-.4l7.8-11zm35.4 33.6c-.6 1-2 1.6-3.9 1.6h-49.5c-1.9 0-3.3-.6-3.9-1.5-.5-.9-.3-2.4.6-4l11.3-15.8c3.9-1.7 12.2-4.5 18.3-.8 4.9 2.9 8.4 3.8 11.1 3.8 2.3 0 4-.6 5.6-1.3l9.8 14.1c1 1.6 1.2 3 .6 3.9zM-421 296c-3 0-5.5 2.5-5.5 5.5s2.5 5.5 5.5 5.5 5.5-2.5 5.5-5.5c0-3.1-2.5-5.5-5.5-5.5zm0 8.9c-1.9 0-3.5-1.6-3.5-3.5s1.6-3.5 3.5-3.5 3.5 1.6 3.5 3.5-1.6 3.5-3.5 3.5zM-392.2 297.5c-2.6 0-4.7 2.1-4.7 4.7s2.1 4.7 4.7 4.7 4.7-2.1 4.7-4.7-2.1-4.7-4.7-4.7zm0 7.4c-1.5 0-2.7-1.2-2.7-2.7s1.2-2.7 2.7-2.7 2.7 1.2 2.7 2.7-1.2 2.7-2.7 2.7zM-407.9 290.5c-2.2 0-4 1.8-4 4s1.8 4 4 4 4-1.8 4-4-1.8-4-4-4zm0 6c-1.1 0-2-.9-2-2s.9-2 2-2 2 .9 2 2-.9 2-2 2zM-402.2 267.4c.6 0 1-.4 1-1v-11c0-.6-.4-1-1-1s-1 .4-1 1v11c0 .6.5 1 1 1zM-402.2 272.4c.6 0 1-.4 1-1v-1c0-.6-.4-1-1-1s-1 .4-1 1v1c0 .6.5 1 1 1z"/></g></svg>